<svg xmlns="http://www.w3.org/2000/svg" width="16" height="16" viewBox="0 0 16 16">
    <path fill="#2FFBC8" fill-rule="evenodd" d="M10.667 8h1.777A4.446 4.446 0 0 0 8 3.556v1.777A2.663 2.663 0 0 1 10.667 8m3.556 0H16a8 8 0 0 0-8-8v1.777A6.219 6.219 0 0 1 14.223 8m.888 3.111c-1.111 0-2.177-.177-3.173-.507a.912.912 0 0 0-.907.213l-1.956 1.956a13.375 13.375 0 0 1-5.857-5.857l1.955-1.965a.855.855 0 0 0 .223-.889A10.067 10.067 0 0 1 4.889.889C4.889.4 4.489 0 4 0H.889C.4 0 0 .4 0 .889 0 9.235 6.765 16 15.111 16c.489 0 .889-.4.889-.889V12c0-.489-.4-.889-.889-.889"/>
</svg>
