<svg xmlns="http://www.w3.org/2000/svg" xmlns:xlink="http://www.w3.org/1999/xlink" width="18" height="18" viewBox="0 0 18 18">
    <defs>
        <path id="a" d="M0 0h17.393v17.393H0z"/>
    </defs>
    <g fill="none" fill-rule="evenodd">
        <mask id="b" fill="#fff">
            <use xlink:href="#a"/>
        </mask>
        <path fill="#FFF" d="M13.338 5.098a1.043 1.043 0 1 1 0-2.087 1.043 1.043 0 0 1 0 2.087m-4.642 7.197a3.598 3.598 0 1 1 0-7.197 3.598 3.598 0 0 1 0 7.197m8.645-7.184c-.043-.926-.19-1.558-.405-2.111a4.268 4.268 0 0 0-1.003-1.54 4.246 4.246 0 0 0-1.54-1.003c-.553-.215-1.186-.362-2.11-.404C11.354.01 11.057 0 8.695 0S6.038.01 5.11.053C4.185.095 3.553.242 3 .457A4.25 4.25 0 0 0 1.46 1.46C.975 1.943.68 2.429.455 3 .241 3.553.094 4.185.052 5.11.01 6.04 0 6.336 0 8.698c0 2.36.011 2.658.053 3.586.042.925.19 1.557.404 2.11.223.572.52 1.058 1.003 1.54.483.484.97.78 1.541 1.004.553.215 1.185.36 2.11.404.928.042 1.224.052 3.586.052s2.66-.01 3.586-.052c.925-.043 1.558-.19 2.111-.404a4.262 4.262 0 0 0 1.54-1.004 4.25 4.25 0 0 0 1.003-1.54c.215-.553.362-1.185.405-2.11.042-.928.052-1.225.052-3.586 0-2.362-.01-2.658-.052-3.586" mask="url(#b)"/>
    </g>
</svg>
