<svg xmlns="http://www.w3.org/2000/svg" width="89" height="73" viewBox="0 0 89 73">
    <path fill="#2FFBC8" fill-rule="evenodd" d="M65.594 17.189c-4.298 5.423-6.448 10.917-6.448 16.482 0 2.357.28 4.385.841 6.083 3.27-2.547 6.821-3.82 10.652-3.82 5.233 0 9.601 1.674 13.105 5.022C87.248 44.305 89 48.808 89 54.467c0 5.282-1.775 9.69-5.326 13.228C80.124 71.232 75.779 73 70.639 73c-7.381 0-13.034-3.065-16.959-9.196-3.27-5.093-4.905-11.459-4.905-19.099 0-9.714 2.453-18.415 7.358-26.101C61.04 10.917 68.443 4.716 78.348 0l2.663 5.234c-5.98 2.547-11.12 6.532-15.417 11.955zm-48.775 0c-4.298 5.423-6.447 10.917-6.447 16.482 0 2.357.28 4.385.84 6.083 3.178-2.547 6.728-3.82 10.653-3.82 5.139 0 9.484 1.674 13.034 5.022 3.55 3.349 5.326 7.852 5.326 13.511 0 3.49-.84 6.65-2.523 9.479-1.682 2.83-3.924 5.046-6.727 6.649-2.803 1.603-5.84 2.405-9.11 2.405-7.382 0-13.035-3.065-16.96-9.196C1.636 58.711 0 52.345 0 44.705c0-9.714 2.453-18.415 7.358-26.101C12.264 10.917 19.668 4.716 29.573 0l2.663 5.234c-5.98 2.547-11.119 6.532-15.417 11.955z"/>
</svg>
