<svg xmlns="http://www.w3.org/2000/svg" xmlns:xlink="http://www.w3.org/1999/xlink" width="17" height="14" viewBox="0 0 17 14">
    <defs>
        <path id="a" d="M0 0h17.037v13.846H0z"/>
    </defs>
    <g fill="none" fill-rule="evenodd">
        <mask id="b" fill="#fff">
            <use xlink:href="#a"/>
        </mask>
        <path fill="#FFF" d="M17.037 1.64c-.626.277-1.3.465-2.007.55A3.491 3.491 0 0 0 16.566.255a6.95 6.95 0 0 1-2.22.847A3.495 3.495 0 0 0 8.39 4.291 9.924 9.924 0 0 1 1.186.64a3.497 3.497 0 0 0 1.082 4.667A3.494 3.494 0 0 1 .684 4.87v.043A3.496 3.496 0 0 0 3.489 8.34a3.46 3.46 0 0 1-1.578.061 3.492 3.492 0 0 0 3.264 2.426 7.011 7.011 0 0 1-4.341 1.497c-.282 0-.561-.016-.834-.048a9.91 9.91 0 0 0 5.358 1.57c6.43 0 9.945-5.326 9.945-9.945 0-.152-.003-.304-.01-.452a7.091 7.091 0 0 0 1.744-1.81" mask="url(#b)"/>
    </g>
</svg>
