<svg xmlns="http://www.w3.org/2000/svg" xmlns:xlink="http://www.w3.org/1999/xlink" width="21" height="12" viewBox="0 0 21 12">
    <defs>
        <path id="a" d="M0 0h20.951v11.953H0z"/>
    </defs>
    <g fill="none" fill-rule="evenodd">
        <mask id="b" fill="#fff">
            <use xlink:href="#a"/>
        </mask>
        <path fill="#FFF" d="M18.684 8.255c1.676 1.556 2.023 2.313 2.08 2.406.694 1.152-.769 1.24-.769 1.24l-2.798.04s-.6.12-1.393-.423c-1.046-.72-2.033-2.587-2.802-2.343-.78.248-.755 1.928-.755 1.928s.005.359-.172.549c-.194.208-.572.25-.572.25H10.25s-2.762.167-5.196-2.367C2.4 6.772.057 1.289.057 1.289S-.079.929.068.755C.233.56.683.547.683.547l2.993-.02s.282.048.484.196c.167.123.26.35.26.35s.484 1.225 1.124 2.332c1.251 2.16 1.834 2.634 2.258 2.402.62-.337.433-3.055.433-3.055s.011-.986-.31-1.425c-.25-.341-.722-.44-.93-.468-.169-.022.107-.413.465-.59C8 .007 8.951-.008 10.075.004c.876.009 1.128.064 1.47.146 1.032.249.682 1.21.682 3.52 0 .739-.133 1.779.4 2.124.23.148.79.022 2.193-2.36.665-1.13 1.164-2.456 1.164-2.456s.108-.237.278-.338c.172-.104.406-.072.406-.072l3.151-.02s.946-.112 1.1.315c.161.449-.354 1.496-1.64 3.21-2.115 2.818-2.35 2.554-.595 4.183" mask="url(#b)"/>
    </g>
</svg>
